<?xml version="1.0" standalone="no"?>
<!DOCTYPE svg PUBLIC "-//W3C//DTD SVG 20010904//EN"
 "http://www.w3.org/TR/2001/REC-SVG-20010904/DTD/svg10.dtd">
<svg version="1.0" xmlns="http://www.w3.org/2000/svg"
 width="260.000000pt" height="260.000000pt" viewBox="0 0 260.000000 260.000000"
 preserveAspectRatio="xMidYMid meet">
<metadata>
Created by potrace 1.14, written by Peter Selinger 2001-2017
</metadata>
<g transform="translate(0.000000,260.000000) scale(0.100000,-0.100000)"
fill="#000000" stroke="none">
<path d="M1125 2485 c-411 -61 -727 -347 -854 -773 -45 -150 -55 -229 -56
-432 0 -215 11 -291 67 -450 62 -175 143 -302 271 -427 178 -173 369 -262 627
-293 407 -49 801 107 1046 415 79 99 147 206 136 216 -4 3 -78 47 -164 97
l-157 91 -30 -52 c-17 -29 -57 -86 -90 -127 -165 -206 -369 -301 -621 -287
-318 18 -567 215 -659 522 -21 68 -42 221 -32 230 2 3 404 5 893 5 l888 0 0
108 c-1 488 -240 902 -622 1076 -188 85 -416 114 -643 81z m385 -374 c136 -43
273 -148 356 -272 48 -73 97 -185 109 -251 l7 -38 -677 0 -678 0 7 42 c9 58
55 163 100 231 61 92 175 191 280 242 50 25 120 52 156 60 89 20 254 13 340
-14z"/>
</g>
</svg>
