<svg viewBox="0 0 24 24" xmlns="http://www.w3.org/2000/svg" xml:space="preserve" style="fill-rule:evenodd;clip-rule:evenodd;stroke-linejoin:round;stroke-miterlimit:2">
	<path d="M513.33 303.33a23.332 23.332 0 0 0-16.496 6.836 23.318 23.318 0 0 0-6.836 16.5v93.332a23.325 23.325 0 0 1-6.836 16.5 23.328 23.328 0 0 1-16.496 6.832h-256.67a23.338 23.338 0 0 1-16.5-6.832 23.336 23.336 0 0 1-6.832-16.5v-256.67a23.327 23.327 0 0 1 6.832-16.496 23.323 23.323 0 0 1 16.5-6.836h93.332a23.335 23.335 0 0 0 0-46.668h-93.332a69.986 69.986 0 0 0-49.496 20.504 70 70 0 0 0-20.504 49.496v256.67a69.986 69.986 0 0 0 20.504 49.496 69.986 69.986 0 0 0 49.496 20.504h256.67a70 70 0 0 0 49.496-20.504 69.986 69.986 0 0 0 20.504-49.496v-93.332a23.335 23.335 0 0 0-6.836-16.5 23.335 23.335 0 0 0-16.5-6.836Z" style="fill-rule:nonzero;fill:#fff;" transform="matrix(0 .05714 -.05714 0 28 -8)"/>
	<path d="M536.67 70h-140a23.335 23.335 0 0 0 0 46.668h83.766l-217 216.77a23.331 23.331 0 0 0 0 33.132 23.331 23.331 0 0 0 33.132 0l216.77-217v83.766a23.335 23.335 0 0 0 46.668 0v-140a23.314 23.314 0 0 0-6.836-16.496 23.315 23.315 0 0 0-16.496-6.836L536.67 70Z" style="fill-rule:nonzero;fill:#fff;" transform="matrix(0 .05714 -.05714 0 28 -8)"/>
</svg>