<svg width="196" height="48" fill="none" xmlns="http://www.w3.org/2000/svg"><path d="M24.387 32.823c.433-7.57-3.893-14.33-12.058-14.33C4.379 18.493 0 24.712 0 32.228c0 7.3 4.866 13.086 12.437 13.086 5.19 0 9.3-2.596 11.734-7.135l-3.677-2.114c-1.677 3.032-4.056 5.248-7.733 5.248-4.92 0-8.273-3.786-8.327-8.49h19.953ZM4.65 29.146c.541-3.677 4.002-6.651 7.733-6.651 3.785 0 6.867 2.974 7.462 6.65H4.65Z" fill="#1544BD"/><path d="M33.69 0h-4.326v44.612h4.326V0ZM51.345 22.495c5.353 0 8.544 4.11 8.544 9.192 0 5.137-2.92 9.626-8.49 9.626-5.407 0-8.328-4.704-8.328-9.68 0-4.758 3.245-9.138 8.274-9.138Zm12.653-3.299h-4.326v3.623h-.108c-2.109-2.703-5.245-4.326-8.706-4.326-7.625 0-12.22 6.219-12.22 13.465 0 7.031 4.704 13.356 12.166 13.356 3.569 0 6.543-1.406 8.76-4.217h.108v3.514h4.326V19.197Z" fill="#C4D108"/><path d="M76.94 24.189v-.267c-.02-.564-.173-1.01-.46-1.336-.287-.337-.697-.505-1.232-.505-.495 0-.92.183-1.276.55-.356.355-.579.875-.668 1.558h3.636Zm.935 2.597v1.306c-.554.317-1.286.475-2.196.475-1.168 0-2.098-.351-2.79-1.054-.693-.702-1.04-1.622-1.04-2.76 0-1.207.317-2.152.95-2.835.634-.693 1.44-1.039 2.42-1.039.96 0 1.721.302 2.285.905.564.594.846 1.455.846 2.583 0 .306-.03.628-.089.964H73.32c.099.654.376 1.153.831 1.5.455.346 1.029.519 1.722.519.801 0 1.469-.188 2.003-.564ZM81.517 20.968v1.202c.426-.87 1.133-1.306 2.123-1.306 1.128 0 1.85.485 2.167 1.455.207-.465.51-.822.905-1.069a2.397 2.397 0 0 1 1.336-.386c.772 0 1.355.228 1.751.683.406.455.609 1.083.609 1.885v5.06h-1.455v-4.749c0-1.078-.435-1.617-1.306-1.617-.435 0-.826.193-1.172.578-.337.386-.505.955-.505 1.707v4.082h-1.455v-4.75c0-1.078-.44-1.617-1.32-1.617-.426 0-.812.193-1.158.578-.347.386-.52.955-.52 1.707v4.082h-1.454v-7.525h1.454ZM95.856 27.32c.584 0 1.063-.227 1.44-.682.375-.465.563-1.114.563-1.945 0-.781-.183-1.4-.549-1.855-.366-.465-.83-.698-1.395-.698-.564 0-1.054.208-1.47.624-.405.406-.608 1.054-.608 1.944 0 .87.203 1.524.609 1.96.415.435.885.652 1.41.652Zm-2.019-6.352v1.158c.515-.841 1.287-1.262 2.316-1.262.989 0 1.77.361 2.345 1.084.573.712.86 1.622.86 2.73 0 1.138-.296 2.078-.89 2.82-.584.733-1.365 1.099-2.345 1.099-1 0-1.761-.416-2.286-1.247v4.022h-1.454V20.968h1.454ZM101.052 28.493V18h1.469v10.493h-1.469ZM107.777 28.626c-1.109 0-1.979-.36-2.612-1.083-.634-.722-.95-1.638-.95-2.746 0-1.128.326-2.063.979-2.805.653-.752 1.514-1.128 2.583-1.128 1.147 0 2.033.366 2.656 1.098.624.723.935 1.648.935 2.776s-.321 2.058-.964 2.79c-.634.732-1.509 1.098-2.627 1.098Zm-.015-6.53c-.643 0-1.143.257-1.499.772-.356.504-.535 1.133-.535 1.885 0 .742.184 1.37.55 1.885.366.504.865.756 1.499.756.673 0 1.182-.247 1.528-.742.357-.494.535-1.123.535-1.885 0-.781-.169-1.42-.505-1.914-.336-.505-.861-.757-1.573-.757ZM115.086 28.33l-2.998-7.362h1.617l.935 2.449 1.173 3.176c.089-.297.445-1.355 1.068-3.176l.846-2.449h1.544l-2.716 7.317c-.722 1.93-1.826 2.894-3.31 2.894-.267 0-.495-.024-.683-.074v-1.247c.159.04.327.06.505.06.96 0 1.633-.53 2.019-1.588ZM121.941 20.968v1.202c.426-.87 1.133-1.306 2.123-1.306 1.128 0 1.85.485 2.166 1.455.208-.465.51-.822.906-1.069a2.398 2.398 0 0 1 1.336-.386c.771 0 1.355.228 1.751.683.406.455.608 1.083.608 1.885v5.06h-1.454v-4.749c0-1.078-.435-1.617-1.306-1.617-.436 0-.826.193-1.173.578-.336.386-.504.955-.504 1.707v4.082h-1.455v-4.75c0-1.078-.44-1.617-1.321-1.617-.425 0-.811.193-1.157.578-.347.386-.52.955-.52 1.707v4.082h-1.454v-7.525h1.454ZM137.482 24.189v-.267c-.02-.564-.173-1.01-.46-1.336-.287-.337-.698-.505-1.232-.505-.495 0-.92.183-1.277.55-.356.355-.578.875-.668 1.558h3.637Zm.935 2.597v1.306c-.554.317-1.287.475-2.197.475-1.167 0-2.097-.351-2.79-1.054-.693-.702-1.039-1.622-1.039-2.76 0-1.207.317-2.152.95-2.835.633-.693 1.44-1.039 2.419-1.039.96 0 1.722.302 2.286.905.564.594.846 1.455.846 2.583 0 .306-.03.628-.089.964h-4.943c.099.654.376 1.153.831 1.5.456.346 1.03.519 1.722.519.802 0 1.469-.188 2.004-.564ZM142.059 20.968v1.291c.445-.93 1.227-1.395 2.345-1.395.742 0 1.331.228 1.766.683.435.455.653 1.073.653 1.855v5.09h-1.454v-4.749c0-.524-.134-.925-.401-1.202-.257-.277-.604-.415-1.039-.415-.515 0-.955.202-1.321.608-.366.396-.549.955-.549 1.677v4.082h-1.455v-7.525h1.455ZM150.664 22.096v4.14c0 .723.346 1.084 1.039 1.084.405 0 .747-.108 1.024-.326V28.3c-.327.178-.727.267-1.202.267-1.554 0-2.33-.787-2.33-2.36v-4.111h-1.173v-1.128h1.173v-1.84h1.469v1.84h1.974v1.128h-1.974ZM72.324 45.314V34.82h1.47v10.494h-1.47ZM79.866 41.96h-1.128c-.554 0-.975.108-1.262.326a1.013 1.013 0 0 0-.415.831c0 .346.109.618.326.816.218.198.535.297.95.297.475 0 .846-.128 1.113-.386.277-.267.416-.613.416-1.039v-.846Zm-3.785-2.375v-1.41c.584-.337 1.356-.505 2.316-.505 1.968 0 2.953.955 2.953 2.864v4.78h-1.44v-.89c-.385.632-1.063.949-2.033.949-.712 0-1.286-.203-1.722-.608-.425-.416-.638-.94-.638-1.574 0-.722.272-1.281.817-1.677.544-.406 1.306-.608 2.285-.608h1.247v-.43c0-.515-.124-.901-.371-1.158-.248-.268-.658-.401-1.232-.401-.802 0-1.529.222-2.182.668ZM84.927 45.314l-2.36-7.525h1.544l.697 2.493c.228.792.421 1.49.58 2.093a22.8 22.8 0 0 1 .296 1.217l.06.312c.128-.624.455-1.836.98-3.637l.726-2.478h1.41l.743 2.478a164.543 164.543 0 0 1 .934 3.355l.06.297c.119-.584.455-1.801 1.01-3.652l.741-2.478h1.47l-2.39 7.525h-1.662l-.698-2.464-.549-1.989c-.148-.584-.247-.98-.297-1.187l-.06-.297c-.138.643-.44 1.8-.905 3.473l-.682 2.464h-1.648ZM97.2 45.15l-2.998-7.361h1.618l.935 2.449 1.172 3.176c.09-.297.445-1.356 1.069-3.176l.846-2.45h1.543l-2.716 7.318C97.947 47.036 96.844 48 95.36 48c-.267 0-.494-.025-.682-.074v-1.247c.158.04.326.06.504.06.96 0 1.633-.53 2.019-1.589ZM107.276 41.01v-.268c-.02-.564-.173-1.009-.46-1.335-.287-.337-.697-.505-1.232-.505-.494 0-.92.183-1.276.55-.356.355-.579.875-.668 1.558h3.636Zm.935 2.597v1.306c-.554.317-1.286.475-2.196.475-1.168 0-2.098-.351-2.791-1.054-.692-.703-1.039-1.623-1.039-2.76 0-1.208.317-2.153.95-2.835.634-.693 1.44-1.04 2.42-1.04.959 0 1.721.303 2.285.906.564.594.846 1.455.846 2.583 0 .306-.029.628-.089.964h-4.942c.099.653.376 1.153.831 1.5.455.346 1.029.519 1.722.519.801 0 1.469-.188 2.003-.564ZM111.853 37.789v1.32c.366-.93 1.024-1.394 1.974-1.394.139 0 .292.014.46.044v1.425a1.75 1.75 0 0 0-.697-.134c-.505 0-.92.223-1.247.668-.326.445-.49.975-.49 1.588v4.008h-1.454v-7.525h1.454ZM119.718 38.041v1.321c-.485-.287-1.109-.43-1.871-.43-.346 0-.623.079-.831.237a.76.76 0 0 0-.297.623c0 .07.005.139.015.208.02.06.05.124.089.193.04.06.075.114.104.163.04.04.099.084.178.134.08.05.139.094.178.134.05.03.124.069.223.118.109.05.188.09.238.12.049.019.133.058.252.118l.267.104c.584.257 1.039.549 1.365.875.337.317.505.742.505 1.277 0 .673-.237 1.202-.712 1.588-.475.376-1.118.564-1.93.564-.89 0-1.632-.149-2.226-.445v-1.38c.693.425 1.41.637 2.152.637.386 0 .683-.079.891-.237a.737.737 0 0 0 .326-.623.797.797 0 0 0-.252-.58 1.648 1.648 0 0 0-.52-.385c-.168-.09-.46-.223-.875-.4-1.178-.486-1.767-1.198-1.767-2.138 0-.663.248-1.182.743-1.558.494-.376 1.113-.564 1.855-.564.811 0 1.444.108 1.9.326ZM129.261 41.96h-1.128c-.554 0-.974.108-1.261.326a1.013 1.013 0 0 0-.416.831c0 .346.109.618.327.816.218.198.534.297.95.297.475 0 .846-.128 1.113-.386.277-.267.415-.613.415-1.039v-.846Zm-3.784-2.375v-1.41c.584-.337 1.355-.505 2.315-.505 1.969 0 2.954.955 2.954 2.864v4.78h-1.44v-.89c-.386.632-1.064.949-2.033.949-.713 0-1.287-.203-1.722-.608-.426-.416-.638-.94-.638-1.574 0-.722.272-1.281.816-1.677.544-.406 1.306-.608 2.286-.608h1.246v-.43c0-.515-.123-.901-.371-1.158-.247-.268-.658-.401-1.231-.401-.802 0-1.529.222-2.182.668ZM136.994 38.041v1.321c-.484-.287-1.108-.43-1.87-.43-.346 0-.623.079-.831.237a.76.76 0 0 0-.297.623c0 .07.005.139.015.208.02.06.05.124.089.193a4 4 0 0 1 .104.163c.04.04.099.084.178.134.079.05.139.094.178.134.05.03.124.069.223.118.109.05.188.09.237.12.05.019.134.058.253.118l.267.104c.584.257 1.039.549 1.365.875.337.317.505.742.505 1.277 0 .673-.237 1.202-.712 1.588-.475.376-1.119.564-1.93.564-.89 0-1.632-.149-2.226-.445v-1.38c.692.425 1.41.637 2.152.637.386 0 .683-.079.89-.237a.736.736 0 0 0 .327-.623.797.797 0 0 0-.252-.58 1.659 1.659 0 0 0-.52-.385c-.168-.09-.46-.223-.876-.4-1.177-.486-1.766-1.198-1.766-2.138 0-.663.248-1.182.742-1.558.495-.376 1.114-.564 1.856-.564.811 0 1.444.108 1.899.326ZM143.212 38.041v1.321c-.485-.287-1.108-.43-1.87-.43-.346 0-.623.079-.831.237a.76.76 0 0 0-.297.623c0 .07.005.139.015.208.02.06.05.124.089.193a4 4 0 0 1 .104.163c.04.04.099.084.178.134.079.05.139.094.178.134.05.03.124.069.223.118.109.05.188.09.237.12.05.019.134.058.253.118l.267.104c.584.257 1.039.549 1.365.875.337.317.505.742.505 1.277 0 .673-.238 1.202-.713 1.588-.474.376-1.118.564-1.929.564-.89 0-1.633-.149-2.226-.445v-1.38c.692.425 1.41.637 2.152.637.386 0 .683-.079.89-.237a.736.736 0 0 0 .327-.623.797.797 0 0 0-.252-.58 1.659 1.659 0 0 0-.52-.385c-.168-.09-.46-.223-.876-.4-1.177-.486-1.766-1.198-1.766-2.138 0-.663.248-1.182.742-1.558.495-.376 1.113-.564 1.856-.564.811 0 1.444.108 1.899.326ZM148.287 45.447c-1.108 0-1.978-.361-2.612-1.083-.633-.723-.95-1.638-.95-2.746 0-1.128.327-2.063.98-2.805.653-.752 1.514-1.128 2.582-1.128 1.148 0 2.034.366 2.657 1.098.623.722.935 1.648.935 2.776s-.321 2.058-.965 2.79c-.633.732-1.508 1.098-2.627 1.098Zm-.014-6.53c-.644 0-1.143.257-1.499.772-.357.504-.535 1.133-.535 1.885 0 .742.183 1.37.549 1.884.367.505.866.757 1.499.757.673 0 1.183-.247 1.529-.742.356-.495.534-1.123.534-1.885 0-.781-.168-1.42-.504-1.914-.337-.505-.861-.757-1.573-.757ZM154.602 41.588c.02.762.252 1.39.698 1.885.445.485 1.068.727 1.87.727.593 0 1.147-.163 1.662-.49v1.307c-.485.297-1.103.445-1.855.445-1.178 0-2.118-.371-2.82-1.113-.703-.742-1.054-1.667-1.054-2.775 0-1.079.351-2 1.054-2.761.712-.772 1.672-1.158 2.879-1.158a3.9 3.9 0 0 1 1.796.416v1.336a3.016 3.016 0 0 0-1.648-.46c-.781 0-1.41.247-1.884.742-.466.494-.698 1.127-.698 1.9ZM160.564 45.314v-7.525h1.469v7.525h-1.469Zm.074-9.173a.916.916 0 0 1-.252-.653c0-.257.084-.475.252-.653a.889.889 0 0 1 .653-.267c.257 0 .475.09.653.267a.888.888 0 0 1 .267.653c0 .248-.089.46-.267.639a.889.889 0 0 1-.653.267.915.915 0 0 1-.653-.253ZM168.105 41.96h-1.128c-.554 0-.974.108-1.261.326a1.013 1.013 0 0 0-.416.831c0 .346.109.618.327.816.217.198.534.297.95.297.475 0 .846-.128 1.113-.386.277-.267.415-.613.415-1.039v-.846Zm-3.784-2.375v-1.41c.583-.337 1.355-.505 2.315-.505 1.969 0 2.954.955 2.954 2.864v4.78h-1.44v-.89c-.386.632-1.064.949-2.033.949-.713 0-1.287-.203-1.722-.608-.426-.416-.638-.94-.638-1.574 0-.722.272-1.281.816-1.677.544-.406 1.306-.608 2.286-.608h1.246v-.43c0-.515-.123-.901-.371-1.158-.247-.268-.658-.401-1.232-.401-.801 0-1.528.222-2.181.668ZM173.434 38.917v4.14c0 .723.346 1.084 1.039 1.084.406 0 .747-.109 1.024-.326v1.306c-.327.178-.727.267-1.202.267-1.554 0-2.33-.787-2.33-2.36v-4.111h-1.173v-1.128h1.173v-1.84h1.469v1.84h1.974v1.128h-1.974ZM177.16 45.314v-7.525h1.469v7.525h-1.469Zm.074-9.173a.916.916 0 0 1-.252-.653c0-.257.084-.475.252-.653a.889.889 0 0 1 .653-.267c.257 0 .475.09.653.267a.888.888 0 0 1 .267.653c0 .248-.089.46-.267.639a.889.889 0 0 1-.653.267.915.915 0 0 1-.653-.253ZM183.885 45.447c-1.108 0-1.979-.361-2.612-1.083-.634-.723-.95-1.638-.95-2.746 0-1.128.326-2.063.979-2.805.653-.752 1.514-1.128 2.583-1.128 1.148 0 2.033.366 2.656 1.098.624.722.935 1.648.935 2.776s-.321 2.058-.964 2.79c-.634.732-1.509 1.098-2.627 1.098Zm-.015-6.53c-.643 0-1.143.257-1.499.772-.356.504-.534 1.133-.534 1.885 0 .742.183 1.37.549 1.884.366.505.865.757 1.499.757.673 0 1.182-.247 1.528-.742.357-.495.535-1.123.535-1.885 0-.781-.168-1.42-.505-1.914-.336-.505-.861-.757-1.573-.757ZM190.57 37.789v1.291c.446-.93 1.227-1.395 2.345-1.395.742 0 1.331.227 1.767.683.435.455.653 1.073.653 1.855v5.09h-1.455v-4.749c0-.524-.134-.925-.401-1.202-.257-.277-.603-.416-1.039-.416-.514 0-.954.203-1.321.609-.366.396-.549.955-.549 1.677v4.082h-1.454v-7.525h1.454Z" fill="#133FAD"/></svg>