<svg viewBox="0 0 24 18" xmlns="http://www.w3.org/2000/svg" xml:space="preserve" style="fill-rule:evenodd;clip-rule:evenodd;stroke-linejoin:round;stroke-miterlimit:2">
	<g transform="matrix(.04159 0 0 .03862 -2.771 -2.09)">
		<path style="fill:none" d="M66.638 54.106h577.11v466.051H66.638z"/>
		<clipPath id="a">
			<path d="M66.638 54.106h577.11v466.051H66.638z" fill="#ffffff"/>
		</clipPath>
		<g clip-path="url(#a)">
			<path d="M601.523 285.232c0 44.042-117.109 157.228-246.329 157.228-18.3 0-36.289-2.451-53.797-6.455l-34.512 37.13c28.909 9.216 58.807 14.793 88.31 14.793 139.325 0 288.556-118.973 288.556-202.696 0-39.86-34.037-87.632-84.54-126.858l-30.685 33.071c44.395 33.497 72.997 72.054 72.997 93.787M108.865 285.232c0-44.046 117.11-157.227 246.33-157.227 19.002 0 37.692 2.67 55.824 6.972l34.432-37.045c-29.508-9.575-60.08-15.397-90.257-15.397-139.325 0-288.556 118.973-288.556 202.696 0 40.25 34.682 88.571 86.005 127.975l30.686-33.04c-45.268-33.737-74.464-72.962-74.464-94.935" fill="#ffffff"/>
			<path d="m350.163 200.532 37.693-40.59c-10.443-3.182-21.283-5.426-32.654-5.426-66.946 0-121.422 58.656-121.422 130.7 0 12.276 2.084 23.917 5.039 35.193l37.693-40.586c2.564-42.646 34.064-76.57 73.648-79.295M363.024 369.633l-38.593 41.555c9.883 2.79 20.073 4.76 30.77 4.76 66.941 0 121.385-58.626 121.385-130.7 0-11.52-1.829-22.46-4.448-33.132l-38.565 41.555c-3.719 40.195-33.221 71.931-70.552 75.966" style="fill-rule:nonzero" fill="#ffffff"/>
			<path d="M512.07 115.01c7.973 7.973 7.973 20.902 0 28.875l-301.11 301.11c-7.973 7.973-20.898 7.973-28.875 0-7.973-7.973-7.973-20.902 0-28.875l301.11-301.11c7.973-7.973 20.898-7.973 28.871 0h.004Z" style="fill-rule:nonzero" fill="#ffffff" transform="matrix(1.20649 0 0 1.29908 -67.077 -76.614)"/>
		</g>
	</g>
</svg>