<svg viewBox="0 0 24 18" xmlns="http://www.w3.org/2000/svg" xml:space="preserve" style="fill-rule:evenodd;clip-rule:evenodd;stroke-linejoin:round;stroke-miterlimit:2">
	<g transform="matrix(.04159 0 0 .03862 -2.771 -2.09)">
		<path style="fill:none" d="M66.638 54.106h577.11v466.051H66.638z"/>
		<clipPath id="a">
			<path d="M66.638 54.106h577.11v466.051H66.638z" fill="#ffffff"/>
		</clipPath>
		<g clip-path="url(#a)">
			<path d="M350 434.58c109.63 0 239.17-88.781 239.17-156.04 0-67.258-129.54-156.04-239.17-156.04s-239.17 88.785-239.17 156.04c0 67.258 129.54 156.04 239.17 156.04Zm0-35c-92.496 0-204.17-76.539-204.17-121.04 0-44.504 111.67-121.04 204.17-121.04 92.5 0 204.17 76.539 204.17 121.04 0 44.5-111.67 121.04-204.17 121.04Z" style="fill-rule:nonzero" fill="#ffffff" transform="matrix(1.20649 0 0 1.29908 -67.077 -76.614)"/>
			<path d="M350 379.17c55.574 0 100.62-45.051 100.62-100.62S405.569 177.93 350 177.93s-100.62 45.051-100.62 100.62S294.431 379.17 350 379.17Zm0-35c-36.242 0-65.625-29.383-65.625-65.625 0-36.246 29.383-65.625 65.625-65.625 36.242 0 65.625 29.379 65.625 65.625 0 36.242-29.383 65.625-65.625 65.625Z" style="fill-rule:nonzero" fill="#ffffff" transform="matrix(1.20649 0 0 1.29908 -67.077 -76.614)"/>
		</g>
	</g>
</svg>